<?xml version="1.0" encoding="UTF-8"?>
<svg id="Layer_2" data-name="Layer 2" xmlns="http://www.w3.org/2000/svg" viewBox="0 0 205.27 190.08">
  <defs>
    <style>
      .cls-1 {
        fill: #00aa21;
      }
    </style>
  </defs>
  <g id="Layer_1-2" data-name="Layer 1">
    <g>
      <path class="cls-1" d="M187.07,188.92H99.04c-18.43,0-34.25-10.58-41.3-27.6-7.04-17.02-3.33-35.68,9.69-48.69L162.25,17.81h-36.4L1.15,142.5V30.84c0-7.97,4.58-14.81,11.94-17.87,2.44-1.01,4.97-1.53,7.54-1.53,5.06,0,9.87,2.03,13.55,5.71l24.86,24.84-11.79,11.78L22.39,28.94c-.54-.54-1.14-.8-1.82-.8-.46,0-.86,.12-1.12,.23-.62,.25-1.65,.9-1.64,2.47V102.29S118.96,1.16,118.96,1.16h83.54S79.24,124.42,79.24,124.42c-8.17,8.16-10.5,19.86-6.08,30.54,4.41,10.68,14.33,17.31,25.89,17.31h56.1s-51.05-51.04-51.05-51.04l11.79-11.78,79.49,79.49h-8.3s0,0,0,0Z"/>
      <path class="cls-1" d="M199.73,2.3L78.42,123.61c-8.5,8.49-10.92,20.69-6.33,31.79,4.6,11.12,14.92,18.02,26.95,18.02h58.88s-52.2-52.19-52.2-52.19l10.17-10.16,76.71,76.72h-5.53s-88.04,0-88.04,0c-17.95,0-33.38-10.31-40.24-26.89-6.86-16.58-3.24-34.76,9.44-47.44L165.01,16.67h-39.65L2.3,139.73V30.84c0-7.51,4.31-13.93,11.24-16.8,2.33-.97,4.73-1.44,7.1-1.44,4.68,0,9.22,1.85,12.74,5.38l24.05,24.03-10.17,10.16L23.2,28.13c-.89-.88-1.84-1.13-2.63-1.13-.67,0-1.22,.18-1.55,.31-.72,.29-2.37,1.23-2.36,3.54V105.06S119.43,2.3,119.43,2.3h80.3m5.54-2.3H119.43s-.95,.01-.95,.01l-.67,.67L18.96,99.52V30.85c-.01-1.04,.68-1.32,.91-1.41,.13-.05,.4-.14,.69-.14,.25,0,.59,.05,1.01,.47l24.04,24.03,1.62,1.62,1.62-1.62,10.17-10.16,1.63-1.62-1.63-1.62-24.05-24.03c-3.89-3.9-8.99-6.05-14.36-6.05-2.71,0-5.4,.54-7.98,1.61C4.86,15.15,.01,22.41,0,30.84v108.9s0,5.54,0,5.54l3.92-3.92L126.32,18.96h33.16L66.62,111.82c-13.36,13.35-17.17,32.49-9.94,49.94,7.23,17.45,23.46,28.3,42.36,28.3h93.56s5.55,0,5.55,0l-3.92-3.92L117.51,109.44l-1.62-1.62-1.62,1.62-10.17,10.16-1.63,1.62,1.63,1.62,48.28,48.26h-53.33c-11.08,0-20.6-6.35-24.83-16.59-4.24-10.24-2-21.47,5.83-29.29L201.35,3.92l3.92-3.92h0Z"/>
    </g>
  </g>
</svg>