<?xml version="1.0" encoding="UTF-8"?>
<svg id="Layer_2" data-name="Layer 2" xmlns="http://www.w3.org/2000/svg" viewBox="0 0 886.55 308.62">
  <defs>
    <style>
      .cls-1 {
        letter-spacing: .02em;
      }

      .cls-1, .cls-2, .cls-3 {
        fill: #00aa21;
      }

      .cls-4, .cls-5 {
        fill: #fff;
      }

      .cls-3 {
        letter-spacing: 0em;
      }

      .cls-6 {
        letter-spacing: -.01em;
      }

      .cls-7 {
        letter-spacing: -.01em;
      }

      .cls-8 {
        letter-spacing: 0em;
      }

      .cls-9 {
        letter-spacing: -.04em;
      }

      .cls-10 {
        letter-spacing: -.04em;
      }

      .cls-11 {
        letter-spacing: -.06em;
      }

      .cls-12 {
        font-family: TypoGraphica, TypoGraphica;
        font-size: 272.85px;
      }

      .cls-5 {
        font-family: ArialRoundedMTBold, 'Arial Rounded MT Bold';
        font-size: 38.74px;
      }
    </style>
  </defs>
  <g id="Layer_1-2" data-name="Layer 1">
    <g>
      <g>
        <path class="cls-2" d="M187.07,229.79H99.04c-18.43,0-34.25-10.58-41.3-27.6-7.04-17.02-3.33-35.68,9.69-48.69L162.25,58.68h-36.4L1.15,183.37V71.71c0-7.97,4.58-14.81,11.94-17.87,2.44-1.01,4.97-1.53,7.54-1.53,5.06,0,9.87,2.03,13.55,5.71l24.86,24.84-11.79,11.78-24.86-24.84c-.54-.54-1.14-.8-1.82-.8-.46,0-.86,.12-1.12,.23-.62,.25-1.65,.9-1.64,2.47v71.45S118.96,42.03,118.96,42.03h83.54s-123.26,123.26-123.26,123.26c-8.17,8.16-10.5,19.86-6.08,30.54,4.41,10.68,14.33,17.31,25.89,17.31h56.1s-51.05-51.04-51.05-51.04l11.79-11.78,79.49,79.49h-8.3s0,0,0,0Z"/>
        <path class="cls-2" d="M199.73,43.16l-121.3,121.31c-8.5,8.49-10.92,20.69-6.33,31.79,4.6,11.12,14.92,18.02,26.95,18.02h58.88s-52.2-52.19-52.2-52.19l10.17-10.16,76.71,76.72h-5.53s-88.04,0-88.04,0c-17.95,0-33.38-10.31-40.24-26.89-6.86-16.58-3.24-34.76,9.44-47.44L165.01,57.54h-39.65L2.3,180.6V71.71c0-7.51,4.31-13.93,11.24-16.8,2.33-.97,4.73-1.44,7.1-1.44,4.68,0,9.22,1.85,12.74,5.38l24.05,24.03-10.17,10.16-24.05-24.03c-.89-.88-1.84-1.13-2.63-1.13-.67,0-1.22,.18-1.55,.31-.72,.29-2.37,1.23-2.36,3.54v74.21S119.43,43.17,119.43,43.17h80.3m5.54-2.3H119.43s-.95,.01-.95,.01l-.67,.67L18.96,140.39V71.72c-.01-1.04,.68-1.32,.91-1.41,.13-.05,.4-.14,.69-.14,.25,0,.59,.05,1.01,.47l24.04,24.03,1.62,1.62,1.62-1.62,10.17-10.16,1.63-1.62-1.63-1.62-24.05-24.03c-3.89-3.9-8.99-6.05-14.36-6.05-2.71,0-5.4,.54-7.98,1.61C4.86,56.02,.01,63.27,0,71.71v108.9S0,186.15,0,186.15l3.92-3.92L126.32,59.83h33.16l-92.85,92.86c-13.36,13.35-17.17,32.49-9.94,49.94,7.23,17.45,23.46,28.3,42.36,28.3h93.56s5.55,0,5.55,0l-3.92-3.92-76.71-76.72-1.62-1.62-1.62,1.62-10.17,10.16-1.63,1.62,1.63,1.62,48.28,48.26h-53.33c-11.08,0-20.6-6.35-24.83-16.59-4.24-10.24-2-21.47,5.83-29.29L201.35,44.79l3.92-3.92h0Z"/>
      </g>
      <text class="cls-12" transform="translate(208.29 230.95)"><tspan class="cls-4" x="0" y="0">INI</tspan><tspan class="cls-1" x="279.51" y="0">G</tspan><tspan class="cls-3" x="471.89" y="0">O</tspan></text>
      <text class="cls-5" transform="translate(0 274.13)"><tspan x="0" y="0">Menghu</tspan><tspan class="cls-6" x="149.71" y="0">b</tspan><tspan class="cls-8" x="173.41" y="0">ung</tspan><tspan class="cls-10" x="244.42" y="0">k</tspan><tspan class="cls-8" x="265.15" y="0">an </tspan><tspan class="cls-11" x="321.26" y="0">T</tspan><tspan x="343.03" y="0">eknologi, Mendo</tspan><tspan class="cls-9" x="651.79" y="0">r</tspan><tspan x="667.28" y="0">ong In</tspan><tspan class="cls-7" x="783.5" y="0">ov</tspan><tspan x="826.88" y="0">asi</tspan></text>
    </g>
  </g>
</svg>