<?xml version="1.0" encoding="UTF-8"?>
<svg id="Layer_1" data-name="Layer 1" xmlns="http://www.w3.org/2000/svg" viewBox="0 0 1080 1030.5">
  <defs>
    <style>
      .cls-1 {
        fill: url(#linear-gradient);
        stroke-width: 0px;
      }

      .cls-2 {
        filter: url(#drop-shadow-1);
      }
      
    </style>
    <filter id="drop-shadow-1" filterUnits="userSpaceOnUse">
      <feOffset dx="17" dy="17"/>
      <feGaussianBlur result="blur" stdDeviation="30"/>
      <feFlood flood-color="#000" flood-opacity=".17"/>
      <feComposite in2="blur" operator="in"/>
      <feComposite in="SourceGraphic"/>
    </filter>
    <linearGradient id="linear-gradient" x1="71.32" y1="-13.25" x2="631.23" y2="528.06" gradientUnits="userSpaceOnUse">
      <stop offset="0" stop-color="#3bf772"/>
      <stop offset="1" stop-color="#3f67fe"/>
    </linearGradient>
  </defs>
  <g class="cls-2">
    <path class="cls-1" d="m914.92,924.26h-383.52c-80.29-.02-149.23-46.09-179.92-120.23-30.69-74.13-14.51-155.42,42.22-212.13l413.06-413.08h-158.58S104.95,722.04,104.95,722.04l.02-486.48c.02-34.7,19.95-64.52,52.01-77.83,10.62-4.41,21.67-6.65,32.83-6.65,22.06,0,43.02,8.84,59.02,24.89l108.3,108.23-51.36,51.33-108.31-108.23c-2.36-2.34-4.95-3.48-7.92-3.48-2.01,0-3.76.54-4.88.99-2.68,1.08-7.18,3.92-7.15,10.76l.04,311.26L618.17,106.26l363.95-.05L445.13,643.25c-35.58,35.54-45.73,86.52-26.49,133.05,19.22,46.52,62.44,75.41,112.8,75.41l244.42-.04-222.42-222.33,51.36-51.33,346.28,346.29-36.15-.03Z"/>
    <path class="cls-1" d="m970.05,111.22L441.59,639.71c-37.04,36.99-47.57,90.13-27.57,138.49,20.02,48.46,65.02,78.5,117.42,78.5l256.49-.04-227.42-227.33,44.29-44.26,334.2,334.21-24.07-.02h-383.53c-78.19-.02-145.41-44.93-175.3-117.14-29.89-72.21-14.11-151.45,41.13-206.68l421.59-421.61h-172.73S109.95,709.97,109.95,709.97l.02-474.41c.02-32.7,18.75-60.68,48.93-73.21,10.14-4.21,20.6-6.27,30.91-6.26,20.39,0,40.16,8.05,55.48,23.42l104.77,104.7-44.29,44.26-104.77-104.7c-3.88-3.84-8-4.94-11.45-4.94-2.9,0-5.32.77-6.75,1.35-3.13,1.26-10.32,5.37-10.28,15.42l.04,323.3L620.24,111.26l349.81-.04m24.14-10h-24.15s-349.81.05-349.81.05h-4.14s-2.93,2.93-2.93,2.93l-430.6,430.57-.04-299.17c-.02-4.51,3.02-5.74,4.02-6.14.58-.23,1.73-.62,3.01-.62,1.09,0,2.58.23,4.41,2.05l104.74,104.67,7.07,7.06,7.07-7.06,44.29-44.26,7.08-7.07-7.08-7.07-104.77-104.7c-16.93-16.99-39.15-26.35-62.55-26.35-11.82,0-23.51,2.36-34.75,7.03-33.96,14.1-55.07,45.69-55.1,82.44l-.02,474.42v24.14s17.07-17.07,17.07-17.07L650.24,183.82h144.44s-404.52,404.55-404.52,404.55c-58.19,58.17-74.78,141.54-43.3,217.58,31.48,76.04,102.19,123.29,184.54,123.31h383.53s24.06.02,24.06.02l24.17.02-17.09-17.09-334.2-334.21-7.07-7.07-7.07,7.07-44.29,44.26-7.08,7.07,7.08,7.07,210.34,210.26-232.35.04c-48.29,0-89.74-27.71-108.17-72.32-18.46-44.63-8.73-93.52,25.39-127.6L977.12,118.29l17.07-17.07h0Z"/>
  </g>
</svg>