<?xml version="1.0" encoding="UTF-8"?>
<svg id="Layer_1" data-name="Layer 1" xmlns="http://www.w3.org/2000/svg" xmlns:xlink="http://www.w3.org/1999/xlink" viewBox="0 0 580.72 554.1">
  <defs>
    <style>
      .cls-1 {
        fill: url(#linear-gradient);
        stroke-width: 0px;
      }

      .cls-2 {
        filter: url(#drop-shadow-1);
      }
    </style>
    <filter id="drop-shadow-1" filterUnits="userSpaceOnUse">
      <feOffset dx="17" dy="17"/>
      <feGaussianBlur result="blur" stdDeviation="30"/>
      <feFlood flood-color="#000" flood-opacity=".17"/>
      <feComposite in2="blur" operator="in"/>
      <feComposite in="SourceGraphic"/>
    </filter>
    <linearGradient id="linear-gradient" x1="71.32" y1="-13.25" x2="631.23" y2="528.06" gradientUnits="userSpaceOnUse">
      <stop offset="0" stop-color="#3bf772"/>
      <stop offset="1" stop-color="#3f67fe"/>
    </linearGradient>
  </defs>
  <g class="cls-2">
    <path class="cls-1" d="m558.91,554.1h-269.64c-52.08,0-96.82-29.89-116.75-78.01-19.93-48.12-9.43-100.89,27.39-137.71L508.29,30h-141.26L0,397.04V80.41c0-20.08,11.52-37.33,30.08-45.01,18.55-7.69,38.9-3.64,53.1,10.56l68.68,68.68-21.21,21.21L61.96,67.18c-8.21-8.21-17.69-5.18-20.4-4.06-2.71,1.12-11.56,5.69-11.56,17.3v244.2L354.61,0h226.11L221.13,359.59c-28.08,28.08-36.09,68.33-20.89,105.02,15.2,36.7,49.31,59.49,89.03,59.49h197.22l-190.18-190.18,21.21-21.21,241.4,241.4Z"/>
  </g>
</svg>