<?xml version="1.0" encoding="UTF-8"?>
<svg id="Layer_2" data-name="Layer 2" xmlns="http://www.w3.org/2000/svg" viewBox="0 0 215.35 81.71">
  <defs>
    <style>
      .cls-1 {
        letter-spacing: .01em;
      }

      .cls-2 {
        font-size: 59.94px;
        letter-spacing: -.04em;
      }

      .cls-2, .cls-3, .cls-4 {
        fill: #00a651;
      }

      .cls-2, .cls-3, .cls-5, .cls-6 {
        font-family: Futura-Bold, Futura;
      }

      .cls-3 {
        font-size: 14.77px;
        letter-spacing: -.04em;
      }

      .cls-7, .cls-8, .cls-5, .cls-6 {
        fill: #fff;
      }

      .cls-9 {
        letter-spacing: 0em;
      }

      .cls-8 {
        font-family: Futura-Medium, Futura;
        font-size: 9.17px;
      }

      .cls-10 {
        letter-spacing: .02em;
      }

      .cls-5 {
        font-size: 40.58px;
      }

      .cls-6 {
        font-size: 59.7px;
      }
    </style>
  </defs>
  <g id="Layer_1-2" data-name="Layer 1">
    <g>
      <text class="cls-8" transform="translate(0 63.05)"><tspan x="0" y="0">Baca Ha</tspan><tspan class="cls-10" x="35.83" y="0">r</tspan><tspan class="cls-9" x="39.4" y="0">i Ini, Pi</tspan><tspan class="cls-1" x="67.42" y="0">m</tspan><tspan x="74.78" y="0">pin Esok</tspan></text>
      <text class="cls-5" transform="translate(39.55 52.32) scale(1.34 1)"><tspan x="0" y="0">I</tspan></text>
      <text class="cls-6" transform="translate(56.48 52.35)"><tspan x="0" y="0">n</tspan></text>
      <text class="cls-5" transform="translate(93.81 52.32) scale(1.34 1)"><tspan x="0" y="0">I</tspan></text>
      <polygon class="cls-7" points="22.2 35.88 37.55 21.73 22.74 21.73 11.4 32.77 11.4 21.72 .59 21.72 .59 52.35 11.4 52.35 11.4 39.88 23.28 52.35 38.44 52.35 22.2 35.88"/>
    </g>
    <g>
      <text class="cls-2" transform="translate(109.61 60.04)"><tspan x="0" y="0">OO</tspan></text>
      <path class="cls-4" d="M149.31,62.22c-.08,.2-.14,.41-.23,.61-.68,1.52-1.61,2.84-2.79,3.96-1.18,1.12-2.54,1.99-4.08,2.61-1.54,.62-3.17,.93-4.89,.93s-3.35-.31-4.89-.93c-1.54-.62-2.89-1.49-4.05-2.61-1.16-1.12-2.08-2.44-2.76-3.96-.09-.2-.16-.4-.23-.61l-10.3,6.91c1.13,2.11,2.53,4.01,4.23,5.68,2.2,2.16,4.83,3.85,7.88,5.07,3.06,1.22,6.42,1.83,10.1,1.83s6.99-.61,10.07-1.83c3.08-1.22,5.72-2.91,7.94-5.07,1.72-1.67,3.13-3.57,4.26-5.68l-10.29-6.91Z"/>
      <text class="cls-3" transform="translate(146.64 15.7)"><tspan x="0" y="0">O</tspan></text>
    </g>
  </g>
</svg>