<?xml version="1.0" encoding="UTF-8"?>
<svg id="Layer_1" data-name="Layer 1" xmlns="http://www.w3.org/2000/svg" viewBox="0 0 1080 1030.5">
  <defs>
    <style>
      .cls-1 {
        fill: #0c00f9;
        stroke-width: 0px;
      }
    </style>
  </defs>
  <path class="cls-1" d="m914.92,929.26h-383.52c-82.35-.02-153.06-47.28-184.54-123.31-31.48-76.04-14.89-159.41,43.3-217.58l404.52-404.54h-144.44S99.95,734.11,99.95,734.11l.02-498.55c.02-36.76,21.14-68.34,55.1-82.44,11.23-4.66,22.92-7.03,34.75-7.03,23.4,0,45.62,9.36,62.56,26.36l111.84,111.76-58.43,58.4-111.84-111.76c-1.8-1.78-3.29-2.02-4.38-2.02-1.27,0-2.43.39-3.01.62-4.04,1.63-4.02,5-4.02,6.1l.04,299.21L616.1,101.26l378.09-.05L448.66,646.78c-34.13,34.08-43.86,82.97-25.4,127.6,18.43,44.61,59.88,72.32,108.18,72.33l232.34-.04-217.42-217.33,58.43-58.4,358.36,358.37-48.24-.04Z"/>
  <path class="cls-1" d="m970.05,111.22L441.59,639.71c-37.04,36.99-47.57,90.13-27.57,138.49,20.02,48.46,65.02,78.5,117.42,78.5l256.49-.04-227.42-227.33,44.29-44.26,334.2,334.21-24.07-.02h-383.53c-78.19-.02-145.41-44.93-175.3-117.14-29.89-72.21-14.11-151.45,41.13-206.68l421.59-421.61h-172.73S109.95,709.97,109.95,709.97l.02-474.41c.02-32.7,18.75-60.68,48.93-73.21,10.14-4.21,20.6-6.27,30.91-6.26,20.39,0,40.16,8.05,55.48,23.42l104.77,104.7-44.29,44.26-104.77-104.7c-3.88-3.84-8-4.94-11.45-4.94-2.9,0-5.32.77-6.75,1.35-3.13,1.26-10.32,5.37-10.28,15.42l.04,323.3L620.24,111.26l349.81-.04m48.29-20.01h-48.29s-349.81.05-349.81.05h-8.28s-5.86,5.86-5.86,5.86L192.56,510.62l-.03-267.05,99.11,99.04,14.14,14.13,14.14-14.13,44.29-44.26,14.15-14.15-14.16-14.15-104.77-104.7c-18.81-18.87-43.54-29.28-69.62-29.28-13.14,0-26.12,2.62-38.58,7.79-37.76,15.68-61.23,50.8-61.26,91.67l-.02,474.42v48.29s34.14-34.14,34.14-34.14L654.38,193.82h116.16s-387.45,387.48-387.45,387.48c-29.91,29.91-49.96,66.98-57.97,107.21-8.01,40.24-3.69,82.17,12.5,121.26,16.19,39.1,42.78,71.81,76.91,94.62,34.12,22.8,74.54,34.86,116.87,34.87h383.53s24.05.02,24.05.02l48.34.04-34.18-34.18-334.2-334.21-14.14-14.14-14.14,14.13-44.29,44.26-14.15,14.14,14.15,14.15,193.26,193.19-208.2.03c-44.17,0-82.08-25.34-98.93-66.14-16.88-40.82-7.99-85.54,23.22-116.7L984.19,125.36l34.15-34.15h0Z"/>
</svg>