<?xml version="1.0" encoding="utf-8"?>
<!-- Generator: Adobe Illustrator 26.4.1, SVG Export Plug-In . SVG Version: 6.00 Build 0)  -->
<svg version="1.1" id="Layer_1" xmlns="http://www.w3.org/2000/svg" xmlns:xlink="http://www.w3.org/1999/xlink" x="0px" y="0px"
	 viewBox="0 0 1080 1030.5" style="enable-background:new 0 0 1080 1030.5;" xml:space="preserve">
<style type="text/css">
	.st0{fill:#00AA21;}
	.st1{font-family:'TypoGraphica';}
	.st2{font-size:272.8488px;}
	.st3{font-family:'ArialRoundedMTBold';}
	.st4{font-size:38.741px;}
	.st5{fill:#FFFFFF;}
</style>
<g>
	<g>
		<path class="st0" d="M261.4,265.6h-88c-18.4,0-34.3-10.6-41.3-27.6c-7-17-3.3-35.7,9.7-48.7l94.8-94.8h-36.4L75.4,219.2l0-111.7
			c0-8,4.6-14.8,11.9-17.9c2.4-1,5-1.5,7.5-1.5c5.1,0,9.9,2,13.5,5.7l24.9,24.8l-11.8,11.8l-24.9-24.8c-0.5-0.5-1.1-0.8-1.8-0.8
			c-0.5,0-0.9,0.1-1.1,0.2c-0.6,0.2-1.6,0.9-1.6,2.5l0,71.4L193.2,77.8l83.5,0L153.5,201.1c-8.2,8.2-10.5,19.9-6.1,30.5
			c4.4,10.7,14.3,17.3,25.9,17.3l56.1,0l-51.1-51l11.8-11.8l79.5,79.5L261.4,265.6L261.4,265.6z"/>
		<path class="st0" d="M274,79L152.7,200.3c-8.5,8.5-10.9,20.7-6.3,31.8c4.6,11.1,14.9,18,27,18l58.9,0L180,197.9l10.2-10.2
			l76.7,76.7l-5.5,0h-88c-17.9,0-33.4-10.3-40.2-26.9c-6.9-16.6-3.2-34.8,9.4-47.4l96.8-96.8h-39.6L76.6,216.4l0-108.9
			c0-7.5,4.3-13.9,11.2-16.8c2.3-1,4.7-1.4,7.1-1.4c4.7,0,9.2,1.8,12.7,5.4l24,24l-10.2,10.2l-24-24c-0.9-0.9-1.8-1.1-2.6-1.1
			c-0.7,0-1.2,0.2-1.5,0.3c-0.7,0.3-2.4,1.2-2.4,3.5l0,74.2L193.7,79L274,79 M279.6,76.7H274l-80.3,0h-1l-0.7,0.7l-98.8,98.8l0-68.7
			c0-1,0.7-1.3,0.9-1.4c0.1-0.1,0.4-0.1,0.7-0.1c0.3,0,0.6,0.1,1,0.5l24,24l1.6,1.6l1.6-1.6l10.2-10.2l1.6-1.6l-1.6-1.6l-24-24
			c-3.9-3.9-9-6-14.4-6c-2.7,0-5.4,0.5-8,1.6c-7.8,3.2-12.6,10.5-12.6,18.9l0,108.9v5.5l3.9-3.9L200.6,95.6h33.2l-92.9,92.9
			c-13.4,13.4-17.2,32.5-9.9,49.9c7.2,17.5,23.5,28.3,42.4,28.3h88l5.5,0l5.5,0l-3.9-3.9l-76.7-76.7l-1.6-1.6l-1.6,1.6l-10.2,10.2
			l-1.6,1.6l1.6,1.6l48.3,48.3l-53.3,0c-11.1,0-20.6-6.4-24.8-16.6c-4.2-10.2-2-21.5,5.8-29.3L275.6,80.6L279.6,76.7L279.6,76.7z"/>
	</g>
	<text transform="matrix(1 0 0 1 282.5788 266.7415)"><tspan x="0" y="0" class="st1 st2">INI</tspan><tspan x="279.5" y="0" class="st0 st1 st2">GO</tspan></text>
	<text transform="matrix(1 0 0 1 74.2899 309.9266)" class="st3 st4">Menghubungkan Teknologi, Mendorong Inovasi</text>
</g>
<g>
	<path class="st0" d="M261.4,579.9h-88c-18.4,0-34.3-10.6-41.3-27.6c-7-17-3.3-35.7,9.7-48.7l94.8-94.8h-36.4L75.4,533.5l0-111.7
		c0-8,4.6-14.8,11.9-17.9c2.4-1,5-1.5,7.5-1.5c5.1,0,9.9,2,13.5,5.7l24.9,24.8l-11.8,11.8l-24.9-24.8c-0.5-0.5-1.1-0.8-1.8-0.8
		c-0.5,0-0.9,0.1-1.1,0.2c-0.6,0.2-1.6,0.9-1.6,2.5l0,71.4l101.1-101.1l83.5,0L153.5,515.4c-8.2,8.2-10.5,19.9-6.1,30.5
		c4.4,10.7,14.3,17.3,25.9,17.3l56.1,0l-51.1-51l11.8-11.8l79.5,79.5L261.4,579.9L261.4,579.9z"/>
	<path class="st0" d="M274,393.2L152.7,514.6c-8.5,8.5-10.9,20.7-6.3,31.8c4.6,11.1,14.9,18,27,18l58.9,0L180,512.2l10.2-10.2
		l76.7,76.7l-5.5,0h-88c-17.9,0-33.4-10.3-40.2-26.9s-3.2-34.8,9.4-47.4l96.8-96.8h-39.6L76.6,530.7l0-108.9
		c0-7.5,4.3-13.9,11.2-16.8c2.3-1,4.7-1.4,7.1-1.4c4.7,0,9.2,1.8,12.7,5.4l24,24l-10.2,10.2l-24-24c-0.9-0.9-1.8-1.1-2.6-1.1
		c-0.7,0-1.2,0.2-1.5,0.3c-0.7,0.3-2.4,1.2-2.4,3.5l0,74.2l102.8-102.8L274,393.2 M279.6,391H274l-80.3,0h-1l-0.7,0.7l-98.8,98.8
		l0-68.7c0-1,0.7-1.3,0.9-1.4c0.1-0.1,0.4-0.1,0.7-0.1c0.3,0,0.6,0.1,1,0.5l24,24l1.6,1.6l1.6-1.6l10.2-10.2l1.6-1.6l-1.6-1.6
		l-24-24c-3.9-3.9-9-6-14.4-6c-2.7,0-5.4,0.5-8,1.6c-7.8,3.2-12.6,10.5-12.6,18.9l0,108.9v5.5l3.9-3.9l122.4-122.4h33.2l-92.9,92.9
		c-13.4,13.4-17.2,32.5-9.9,49.9c7.2,17.5,23.5,28.3,42.4,28.3h88l5.5,0l5.5,0l-3.9-3.9l-76.7-76.7l-1.6-1.6l-1.6,1.6l-10.2,10.2
		l-1.6,1.6l1.6,1.6l48.3,48.3l-53.3,0c-11.1,0-20.6-6.4-24.8-16.6c-4.2-10.2-2-21.5,5.8-29.3l121.3-121.3L279.6,391L279.6,391z"/>
</g>
<text transform="matrix(1 0 0 1 282.5789 581.0332)"><tspan x="0" y="0" class="st5 st1 st2">INI</tspan><tspan x="279.5" y="0" class="st0 st1 st2">GO</tspan></text>
<text transform="matrix(1 0 0 1 74.29 624.2183)" class="st5 st3 st4">Menghubungkan Teknologi, Mendorong Inovasi</text>
<g>
	<path class="st0" d="M259.9,911.8h-88c-18.4,0-34.3-10.6-41.3-27.6c-7-17-3.3-35.7,9.7-48.7l94.8-94.8h-36.4L73.9,865.3l0-111.7
		c0-8,4.6-14.8,11.9-17.9c2.4-1,5-1.5,7.5-1.5c5.1,0,9.9,2,13.5,5.7l24.9,24.8L120,776.6l-24.9-24.8c-0.5-0.5-1.1-0.8-1.8-0.8
		c-0.5,0-0.9,0.1-1.1,0.2c-0.6,0.2-1.6,0.9-1.6,2.5l0,71.4L191.7,724l83.5,0L152,847.3c-8.2,8.2-10.5,19.9-6.1,30.5
		c4.4,10.7,14.3,17.3,25.9,17.3l56.1,0l-51.1-51l11.8-11.8l79.5,79.5L259.9,911.8L259.9,911.8z"/>
	<path class="st0" d="M272.5,725.1L151.2,846.4c-8.5,8.5-10.9,20.7-6.3,31.8c4.6,11.1,14.9,18,27,18l58.9,0l-52.2-52.2l10.2-10.2
		l76.7,76.7l-5.5,0h-88c-17.9,0-33.4-10.3-40.2-26.9c-6.9-16.6-3.2-34.8,9.4-47.4l96.8-96.8h-39.6L75.1,862.6l0-108.9
		c0-7.5,4.3-13.9,11.2-16.8c2.3-1,4.7-1.4,7.1-1.4c4.7,0,9.2,1.8,12.7,5.4l24,24L120,775l-24-24c-0.9-0.9-1.8-1.1-2.6-1.1
		c-0.7,0-1.2,0.2-1.5,0.3c-0.7,0.3-2.4,1.2-2.4,3.5l0,74.2l102.8-102.8L272.5,725.1 M278.1,722.8h-5.5l-80.3,0h-1l-0.7,0.7
		l-98.8,98.8l0-68.7c0-1,0.7-1.3,0.9-1.4c0.1-0.1,0.4-0.1,0.7-0.1c0.3,0,0.6,0.1,1,0.5l24,24l1.6,1.6l1.6-1.6l10.2-10.2l1.6-1.6
		l-1.6-1.6l-24-24c-3.9-3.9-9-6-14.4-6c-2.7,0-5.4,0.5-8,1.6c-7.8,3.2-12.6,10.5-12.6,18.9l0,108.9v5.5l3.9-3.9l122.4-122.4h33.2
		l-92.9,92.9c-13.4,13.4-17.2,32.5-9.9,49.9c7.2,17.5,23.5,28.3,42.4,28.3h88l5.5,0l5.5,0L267,909l-76.7-76.7l-1.6-1.6l-1.6,1.6
		l-10.2,10.2l-1.6,1.6l1.6,1.6l48.3,48.3l-53.3,0c-11.1,0-20.6-6.4-24.8-16.6c-4.2-10.2-2-21.5,5.8-29.3l121.3-121.3L278.1,722.8
		L278.1,722.8z"/>
</g>
<text transform="matrix(1 0 0 1 281.0775 912.9162)"><tspan x="0" y="0" class="st1 st2">INI</tspan><tspan x="279.5" y="0" class="st0 st1 st2">GO</tspan></text>
</svg>
